<svg xmlns="http://www.w3.org/2000/svg" xmlns:xlink="http://www.w3.org/1999/xlink" width="35" zoomAndPan="magnify" viewBox="0 0 26.25 22.5" height="30" preserveAspectRatio="xMidYMid meet" version="1.0"><defs><g/><clipPath id="5e9543c828"><path d="M 0 0.0703125 L 25.519531 0.0703125 L 25.519531 21.945312 L 0 21.945312 Z M 0 0.0703125 " clip-rule="nonzero"/></clipPath></defs><g clip-path="url(#5e9543c828)"><path fill="#004aad" d="M 12.589844 0.0703125 L 0 10.222656 L 0.199219 10.488281 C 0.757812 11.226562 1.816406 11.355469 2.53125 10.769531 L 2.84375 10.511719 L 2.84375 21.589844 L 22.335938 21.589844 L 22.335938 10.511719 L 22.648438 10.769531 C 23.363281 11.355469 24.421875 11.226562 24.976562 10.488281 L 25.179688 10.222656 Z M 12.316406 7.378906 C 12.316406 7.378906 11.503906 11.25 13.890625 11.25 C 14.972656 11.25 15.410156 9.527344 15.410156 9.527344 C 15.410156 9.527344 18.007812 11.464844 18.007812 14.289062 C 18.007812 16.667969 16.378906 18.75 14.105469 19.203125 C 14.105469 19.203125 15.191406 18.417969 15.191406 17.054688 C 15.191406 15.550781 14.324219 14.6875 14.324219 14.6875 C 14.324219 14.6875 13.890625 15.332031 13.023438 15.332031 C 11.65625 15.332031 11.441406 12.96875 11.441406 12.96875 C 11.441406 12.96875 10.421875 14.042969 10.421875 16.410156 C 10.421875 17.914062 11.503906 19.203125 11.503906 19.203125 C 11.503906 19.203125 7.167969 18.773438 7.167969 14.257812 C 7.167969 11.894531 8.46875 10.386719 8.46875 10.386719 C 8.46875 10.386719 8.6875 11.679688 9.554688 12.109375 C 10.203125 8.667969 12.316406 7.378906 12.316406 7.378906 Z M 12.316406 7.378906 " fill-opacity="1" fill-rule="nonzero"/></g><g fill="#004aad" fill-opacity="1"><g transform="translate(6.152734, 19.478362)"><g><path d="M 0.578125 0.015625 C 0.503906 0.015625 0.441406 0.00390625 0.390625 -0.015625 C 0.335938 -0.046875 0.296875 -0.0859375 0.265625 -0.140625 C 0.234375 -0.203125 0.21875 -0.265625 0.21875 -0.328125 C 0.21875 -0.390625 0.234375 -0.445312 0.265625 -0.5 C 0.296875 -0.550781 0.335938 -0.59375 0.390625 -0.625 C 0.441406 -0.65625 0.503906 -0.671875 0.578125 -0.671875 C 0.648438 -0.671875 0.710938 -0.65625 0.765625 -0.625 C 0.828125 -0.59375 0.875 -0.550781 0.90625 -0.5 C 0.9375 -0.445312 0.953125 -0.390625 0.953125 -0.328125 C 0.953125 -0.222656 0.914062 -0.140625 0.84375 -0.078125 C 0.78125 -0.015625 0.691406 0.015625 0.578125 0.015625 Z M 0.578125 0.015625 "/></g></g></g></svg>