<svg xmlns="http://www.w3.org/2000/svg" xmlns:xlink="http://www.w3.org/1999/xlink" width="109" zoomAndPan="magnify" viewBox="0 0 81.75 22.5" height="30" preserveAspectRatio="xMidYMid meet" version="1.0"><defs><g/><clipPath id="34ba89ab64"><path d="M 0.765625 0 L 26.105469 0 L 26.105469 21.339844 L 0.765625 21.339844 Z M 0.765625 0 " clip-rule="nonzero"/></clipPath></defs><g clip-path="url(#34ba89ab64)"><path fill="#ffffff" d="M 13.429688 0.00390625 L 0.765625 10.21875 L 0.96875 10.484375 C 1.527344 11.230469 2.59375 11.359375 3.3125 10.769531 L 3.625 10.507812 L 3.625 21.65625 L 23.234375 21.65625 L 23.234375 10.507812 L 23.550781 10.769531 C 24.269531 11.359375 25.335938 11.230469 25.894531 10.484375 L 26.097656 10.21875 Z M 13.160156 7.359375 C 13.160156 7.359375 12.339844 11.253906 14.738281 11.253906 C 15.832031 11.253906 16.265625 9.523438 16.265625 9.523438 C 16.265625 9.523438 18.882812 11.46875 18.882812 14.3125 C 18.882812 16.707031 17.242188 18.800781 14.957031 19.253906 C 14.957031 19.253906 16.046875 18.464844 16.046875 17.09375 C 16.046875 15.578125 15.175781 14.714844 15.175781 14.714844 C 15.175781 14.714844 14.738281 15.363281 13.867188 15.363281 C 12.492188 15.363281 12.273438 12.980469 12.273438 12.980469 C 12.273438 12.980469 11.25 14.0625 11.25 16.445312 C 11.25 17.957031 12.339844 19.253906 12.339844 19.253906 C 12.339844 19.253906 7.976562 18.824219 7.976562 14.28125 C 7.976562 11.902344 9.285156 10.386719 9.285156 10.386719 C 9.285156 10.386719 9.503906 11.683594 10.375 12.117188 C 11.03125 8.65625 13.160156 7.359375 13.160156 7.359375 Z M 13.160156 7.359375 " fill-opacity="1" fill-rule="nonzero"/></g><g fill="#ffffff" fill-opacity="1"><g transform="translate(31.227142, 16.360618)"><g><path d="M 5.46875 -7.15625 L 5.46875 -5.96875 L 2.34375 -5.96875 L 2.34375 -4.078125 L 5.1875 -4.078125 L 5.1875 -2.90625 L 2.34375 -2.90625 L 2.34375 0 L 0.9375 0 L 0.9375 -7.15625 Z M 5.46875 -7.15625 "/></g></g><g transform="translate(37.017289, 16.360618)"><g><path d="M 1.453125 -6.046875 C 1.210938 -6.046875 1.015625 -6.117188 0.859375 -6.265625 C 0.703125 -6.421875 0.625 -6.613281 0.625 -6.84375 C 0.625 -7.070312 0.703125 -7.257812 0.859375 -7.40625 C 1.015625 -7.5625 1.210938 -7.640625 1.453125 -7.640625 C 1.617188 -7.640625 1.765625 -7.601562 1.890625 -7.53125 C 2.015625 -7.46875 2.113281 -7.375 2.1875 -7.25 C 2.257812 -7.132812 2.296875 -7 2.296875 -6.84375 C 2.296875 -6.695312 2.257812 -6.5625 2.1875 -6.4375 C 2.113281 -6.3125 2.015625 -6.210938 1.890625 -6.140625 C 1.765625 -6.078125 1.617188 -6.046875 1.453125 -6.046875 Z M 0.78125 0 L 0.78125 -5.40625 L 2.140625 -5.40625 L 2.140625 0 Z M 0.78125 0 "/></g></g><g transform="translate(39.927058, 16.360618)"><g><path d="M 0.78125 0 L 0.78125 -5.40625 L 2.09375 -5.40625 L 2.09375 -4.59375 L 2.203125 -4.578125 C 2.328125 -4.878906 2.492188 -5.097656 2.703125 -5.234375 C 2.921875 -5.378906 3.179688 -5.453125 3.484375 -5.453125 C 3.796875 -5.453125 4.03125 -5.398438 4.1875 -5.296875 L 3.953125 -4.125 L 3.859375 -4.109375 C 3.765625 -4.140625 3.675781 -4.160156 3.59375 -4.171875 C 3.519531 -4.191406 3.421875 -4.203125 3.296875 -4.203125 C 2.921875 -4.203125 2.632812 -4.066406 2.4375 -3.796875 C 2.238281 -3.535156 2.140625 -3.113281 2.140625 -2.53125 L 2.140625 0 Z M 0.78125 0 "/></g></g><g transform="translate(44.164349, 16.360618)"><g><path d="M 5.34375 -2.390625 L 1.859375 -2.390625 C 1.898438 -1.921875 2.035156 -1.578125 2.265625 -1.359375 C 2.492188 -1.148438 2.804688 -1.046875 3.203125 -1.046875 C 3.515625 -1.046875 3.765625 -1.101562 3.953125 -1.21875 C 4.148438 -1.332031 4.304688 -1.507812 4.421875 -1.75 L 4.53125 -1.75 L 5.421875 -1.171875 C 5.242188 -0.796875 4.976562 -0.488281 4.625 -0.25 C 4.269531 -0.0078125 3.796875 0.109375 3.203125 0.109375 C 2.640625 0.109375 2.15625 0.00390625 1.75 -0.203125 C 1.34375 -0.421875 1.03125 -0.738281 0.8125 -1.15625 C 0.59375 -1.582031 0.484375 -2.097656 0.484375 -2.703125 C 0.484375 -3.316406 0.597656 -3.832031 0.828125 -4.25 C 1.066406 -4.675781 1.378906 -4.988281 1.765625 -5.1875 C 2.160156 -5.394531 2.609375 -5.5 3.109375 -5.5 C 3.867188 -5.5 4.453125 -5.296875 4.859375 -4.890625 C 5.265625 -4.492188 5.46875 -3.898438 5.46875 -3.109375 C 5.46875 -2.828125 5.457031 -2.609375 5.4375 -2.453125 Z M 4.171875 -3.265625 C 4.160156 -3.679688 4.066406 -3.984375 3.890625 -4.171875 C 3.710938 -4.359375 3.453125 -4.453125 3.109375 -4.453125 C 2.421875 -4.453125 2.015625 -4.054688 1.890625 -3.265625 Z M 4.171875 -3.265625 "/></g></g><g transform="translate(50.037772, 16.360618)"><g/></g><g transform="translate(52.403796, 16.360618)"><g><path d="M 6.875 0 L 5.390625 0 L 4.84375 -1.65625 L 2.09375 -1.65625 L 1.5625 0 L 0.109375 0 L 2.578125 -7.15625 L 4.40625 -7.15625 Z M 3.40625 -5.671875 L 2.484375 -2.84375 L 4.453125 -2.84375 L 3.53125 -5.671875 Z M 3.40625 -5.671875 "/></g></g><g transform="translate(59.384303, 16.360618)"><g><path d="M 0.78125 2.1875 L 0.78125 -5.40625 L 2.140625 -5.40625 L 2.140625 -4.703125 L 2.234375 -4.671875 C 2.398438 -4.953125 2.613281 -5.160156 2.875 -5.296875 C 3.144531 -5.429688 3.460938 -5.5 3.828125 -5.5 C 4.253906 -5.5 4.628906 -5.394531 4.953125 -5.1875 C 5.285156 -4.988281 5.539062 -4.675781 5.71875 -4.25 C 5.894531 -3.832031 5.984375 -3.316406 5.984375 -2.703125 C 5.984375 -2.078125 5.890625 -1.554688 5.703125 -1.140625 C 5.515625 -0.722656 5.25 -0.410156 4.90625 -0.203125 C 4.570312 0.00390625 4.179688 0.109375 3.734375 0.109375 C 3.398438 0.109375 3.109375 0.0507812 2.859375 -0.0625 C 2.617188 -0.175781 2.410156 -0.351562 2.234375 -0.59375 L 2.140625 -0.578125 L 2.140625 2.1875 Z M 3.359375 -1.046875 C 3.765625 -1.046875 4.070312 -1.175781 4.28125 -1.4375 C 4.488281 -1.707031 4.59375 -2.128906 4.59375 -2.703125 C 4.59375 -3.273438 4.488281 -3.691406 4.28125 -3.953125 C 4.070312 -4.222656 3.765625 -4.359375 3.359375 -4.359375 C 2.972656 -4.359375 2.671875 -4.21875 2.453125 -3.9375 C 2.234375 -3.664062 2.125 -3.253906 2.125 -2.703125 C 2.125 -2.148438 2.234375 -1.734375 2.453125 -1.453125 C 2.671875 -1.179688 2.972656 -1.046875 3.359375 -1.046875 Z M 3.359375 -1.046875 "/></g></g><g transform="translate(65.855356, 16.360618)"><g><path d="M 0.78125 2.1875 L 0.78125 -5.40625 L 2.140625 -5.40625 L 2.140625 -4.703125 L 2.234375 -4.671875 C 2.398438 -4.953125 2.613281 -5.160156 2.875 -5.296875 C 3.144531 -5.429688 3.460938 -5.5 3.828125 -5.5 C 4.253906 -5.5 4.628906 -5.394531 4.953125 -5.1875 C 5.285156 -4.988281 5.539062 -4.675781 5.71875 -4.25 C 5.894531 -3.832031 5.984375 -3.316406 5.984375 -2.703125 C 5.984375 -2.078125 5.890625 -1.554688 5.703125 -1.140625 C 5.515625 -0.722656 5.25 -0.410156 4.90625 -0.203125 C 4.570312 0.00390625 4.179688 0.109375 3.734375 0.109375 C 3.398438 0.109375 3.109375 0.0507812 2.859375 -0.0625 C 2.617188 -0.175781 2.410156 -0.351562 2.234375 -0.59375 L 2.140625 -0.578125 L 2.140625 2.1875 Z M 3.359375 -1.046875 C 3.765625 -1.046875 4.070312 -1.175781 4.28125 -1.4375 C 4.488281 -1.707031 4.59375 -2.128906 4.59375 -2.703125 C 4.59375 -3.273438 4.488281 -3.691406 4.28125 -3.953125 C 4.070312 -4.222656 3.765625 -4.359375 3.359375 -4.359375 C 2.972656 -4.359375 2.671875 -4.21875 2.453125 -3.9375 C 2.234375 -3.664062 2.125 -3.253906 2.125 -2.703125 C 2.125 -2.148438 2.234375 -1.734375 2.453125 -1.453125 C 2.671875 -1.179688 2.972656 -1.046875 3.359375 -1.046875 Z M 3.359375 -1.046875 "/></g></g></g></svg>